<?xml version="1.0" encoding="UTF-8" standalone="no"?>
<svg width="43px" height="43px" viewBox="0 0 43 43" version="1.1" xmlns="http://www.w3.org/2000/svg" xmlns:xlink="http://www.w3.org/1999/xlink">
    <!-- Generator: Sketch 39.1 (31720) - http://www.bohemiancoding.com/sketch -->
    <title>Fill 16 FROM SMILEY</title>
    <desc>Created with Sketch.</desc>
    <defs></defs>
    <g id="Page-1" stroke="none" stroke-width="1" fill="none" fill-rule="evenodd">
        <g id="About" transform="translate(-516.000000, -1589.000000)" fill="#0A0B09">
            <g id="Fill-16-FROM-SMILEY" transform="translate(516.000000, 1589.000000)">
                <path d="M21.5,28.6666667 C19.7401852,28.6666667 18.3148148,30.0928333 18.3148148,31.8518519 C18.3148148,33.6108704 19.7401852,35.037037 21.5,35.037037 C23.2598148,35.037037 24.6851852,33.6108704 24.6851852,31.8518519 C24.6851852,30.0928333 23.2598148,28.6666667 21.5,28.6666667 L21.5,28.6666667 Z M21.5,37.4259259 C18.4262963,37.4259259 15.9259259,34.9247593 15.9259259,31.8518519 C15.9259259,28.7781481 18.4262963,26.2777778 21.5,26.2777778 C24.5737037,26.2777778 27.0740741,28.7781481 27.0740741,31.8518519 C27.0740741,34.9247593 24.5737037,37.4259259 21.5,37.4259259 L21.5,37.4259259 Z M21.5,24.6851852 C17.5503704,24.6851852 14.3333333,27.8998333 14.3333333,31.8518519 C14.3333333,35.8038704 17.5503704,39.0185185 21.5,39.0185185 C25.4496296,39.0185185 28.6666667,35.8038704 28.6666667,31.8518519 C28.6666667,27.8998333 25.4496296,24.6851852 21.5,24.6851852 L21.5,24.6851852 Z M27.8703704,16.7222222 C25.6725926,16.7222222 23.8888889,18.5083148 23.8888889,20.7037037 L25.4814815,20.7037037 C25.4814815,19.3858333 26.5564815,18.3148148 27.8703704,18.3148148 C29.1842593,18.3148148 30.2592593,19.3858333 30.2592593,20.7037037 L31.8518519,20.7037037 C31.8518519,18.5083148 30.0681481,16.7222222 27.8703704,16.7222222 L27.8703704,16.7222222 Z M17.5185185,20.7037037 L19.1111111,20.7037037 C19.1111111,18.5083148 17.3274074,16.7222222 15.1296296,16.7222222 C12.9318519,16.7222222 11.1481481,18.5083148 11.1481481,20.7037037 L12.7407407,20.7037037 C12.7407407,19.3858333 13.8157407,18.3148148 15.1296296,18.3148148 C16.4435185,18.3148148 17.5185185,19.3858333 17.5185185,20.7037037 L17.5185185,20.7037037 Z M21.5,41.4074074 C10.5190741,41.4074074 1.59259259,32.4769444 1.59259259,21.5 C1.59259259,10.5222593 10.5190741,1.59259259 21.5,1.59259259 C32.4809259,1.59259259 41.4074074,10.5222593 41.4074074,21.5 C41.4074074,32.4769444 32.4809259,41.4074074 21.5,41.4074074 L21.5,41.4074074 Z M21.5,0 C9.64314815,0 0,9.64474074 0,21.5 C0,33.354463 9.64314815,43 21.5,43 C33.3568519,43 43,33.354463 43,21.5 C43,9.64474074 33.3568519,0 21.5,0 L21.5,0 Z"></path>
            </g>
        </g>
    </g>
</svg>