<?xml version="1.0" encoding="UTF-8" standalone="no"?>
<svg width="49px" height="47px" viewBox="0 0 49 47" version="1.1" xmlns="http://www.w3.org/2000/svg" xmlns:xlink="http://www.w3.org/1999/xlink">
    <!-- Generator: Sketch 39.1 (31720) - http://www.bohemiancoding.com/sketch -->
    <title>Group</title>
    <desc>Created with Sketch.</desc>
    <defs></defs>
    <g id="Page-1" stroke="none" stroke-width="1" fill="none" fill-rule="evenodd">
        <g id="About" transform="translate(-514.000000, -936.000000)" fill="#0A0B09">
            <g id="Group" transform="translate(514.000000, 936.000000)">
                <path d="M13.5172414,16.0517241 C6.99517241,16.0517241 1.68965517,21.3572414 1.68965517,27.8793103 C1.68965517,34.4013793 6.99517241,39.7068966 13.5172414,39.7068966 C20.0393103,39.7068966 25.3448276,34.4013793 25.3448276,27.8793103 C25.3448276,21.3572414 20.0393103,16.0517241 13.5172414,16.0517241 L13.5172414,16.0517241 Z M13.5172414,41.3965517 C6.06417241,41.3965517 0,35.3306897 0,27.8793103 C0,20.427931 6.06417241,14.362069 13.5172414,14.362069 C20.9703103,14.362069 27.0344828,20.427931 27.0344828,27.8793103 C27.0344828,35.3306897 20.9703103,41.3965517 13.5172414,41.3965517 L13.5172414,41.3965517 Z" id="Fill-280"></path>
                <polygon id="Fill-281" points="0.844827586 27.0344828 26.1896552 27.0344828 26.1896552 28.7241379 0.844827586 28.7241379"></polygon>
                <path d="M43.8947069,25.7841379 C42.9949655,25.7841379 42.1383103,26.1558621 41.4827241,26.8148276 L28.915069,39.3858621 C28.2873621,40.0194828 27.9426724,40.8727586 27.9485862,41.7767241 C27.9545,42.6806897 28.3093276,43.5255172 28.9480172,44.1591379 C29.5816379,44.7843103 30.4247759,45.1306897 31.3219828,45.1306897 C32.2360862,45.1306897 33.0910517,44.7758621 33.7272069,44.1337931 L46.2568448,31.5965517 C46.8769483,30.9713793 47.2115,30.1096552 47.1929138,29.1718966 C47.1751724,28.2425862 46.800069,27.3555172 46.1639138,26.7303448 C45.5488793,26.122069 44.7437586,25.7841379 43.8947069,25.7841379 L43.8947069,25.7841379 Z M31.3219828,46.8203448 C29.9770172,46.8203448 28.7123103,46.305 27.7610345,45.3587931 C26.8013103,44.4125862 26.2673793,43.1453448 26.258931,41.7851724 C26.2504828,40.4334483 26.7683621,39.1577586 27.7162586,38.1946552 L40.2839138,25.6236207 C41.2554655,24.6436207 42.5396034,24.0944828 43.8947069,24.0944828 C45.1906724,24.0944828 46.4173621,24.6013793 47.3500517,25.5222414 C48.2971034,26.46 48.8555345,27.777931 48.8817241,29.1381034 C48.9104483,30.532069 48.4027069,31.8331034 47.4556552,32.7877586 L34.9260172,45.325 C33.9730517,46.2881034 32.6914483,46.8203448 31.3219828,46.8203448 L31.3219828,46.8203448 Z" id="Fill-282"></path>
                <polyline id="Fill-283" points="40.2839138 38.7691379 34.3092931 32.7962069 35.5038793 31.5965517 41.4785 37.577931 40.2839138 38.7691379"></polyline>
                <path d="M19.3397931,2.36551724 C17.977931,2.36551724 16.7546207,3.16810345 16.2215345,4.41 C15.4873793,6.125 16.2823621,8.1187931 17.9956724,8.8537931 L34.2349483,15.9418966 C34.6286379,16.1108621 35.054431,16.1953448 35.4962759,16.1953448 C36.8902414,16.1953448 38.1929655,15.342069 38.7378793,14.0748276 C39.4593621,12.3851724 38.6711379,10.4843103 36.9434655,9.74931034 L20.6543448,2.63586207 C20.2386897,2.45844828 19.7951552,2.36551724 19.3397931,2.36551724 L19.3397931,2.36551724 Z M35.4962759,17.885 C34.8246379,17.885 34.1741207,17.7498276 33.5641552,17.487931 L17.3240345,10.3998276 C14.7608276,9.30155172 13.567931,6.31086207 14.6687414,3.74258621 C15.4687931,1.88396552 17.3012241,0.675862069 19.3397931,0.675862069 C20.0249483,0.675862069 20.6932069,0.811034483 21.3259828,1.08982759 L37.6142586,8.19482759 C40.2087241,9.31 41.385569,12.1824138 40.2898276,14.7337931 C39.4830172,16.6177586 37.5568103,17.885 35.4962759,17.885 L35.4962759,17.885 Z" id="Fill-284"></path>
                <polyline id="Fill-285" points="26.9288793 13.6693103 25.3794655 12.9934483 28.7587759 5.25482759 30.3081897 5.93068966 26.9288793 13.6693103"></polyline>
            </g>
        </g>
    </g>
</svg>