<?xml version="1.0" encoding="UTF-8" standalone="no"?>
<svg width="48px" height="30px" viewBox="0 0 48 30" version="1.1" xmlns="http://www.w3.org/2000/svg" xmlns:xlink="http://www.w3.org/1999/xlink">
    <!-- Generator: Sketch 39.1 (31720) - http://www.bohemiancoding.com/sketch -->
    <title>Fill 252 FROM MEDICAL</title>
    <desc>Created with Sketch.</desc>
    <defs></defs>
    <g id="Page-1" stroke="none" stroke-width="1" fill="none" fill-rule="evenodd">
        <g id="About" transform="translate(-71.000000, -1596.000000)" fill="#0A0B09">
            <g id="Fill-252-FROM-MEDICAL" transform="translate(71.000000, 1596.000000)">
                <path d="M1.57894737,28.4210526 L45.7894737,28.4210526 L45.7894737,1.57894737 L1.57894737,1.57894737 L1.57894737,28.4210526 Z M46.5789474,30 L0.789473684,30 C0.355263158,30 0,29.6463158 0,29.2105263 L0,0.789473684 C0,0.353684211 0.355263158,0 0.789473684,0 L46.5789474,0 C47.0131579,0 47.3684211,0.353684211 47.3684211,0.789473684 L47.3684211,29.2105263 C47.3684211,29.6463158 47.0131579,30 46.5789474,30 L46.5789474,30 Z" id="Fill-252"></path>
                <path d="M22.8947368,26.8421053 C22.8789474,26.8421053 22.8631579,26.8421053 22.8473684,26.8413158 C22.4921053,26.8215789 22.2,26.5657895 22.1210526,26.2176316 L17.9052632,6.53921053 L14.1473684,15.3110526 C14.0210526,15.6015789 13.7368421,15.7894737 13.4210526,15.7894737 L0.789473684,15.7894737 C0.355263158,15.7894737 0,15.4357895 0,15 C0,14.5642105 0.355263158,14.2105263 0.789473684,14.2105263 L12.9,14.2105263 L17.4315789,3.63631579 C17.5657895,3.32052632 17.8894737,3.12789474 18.2368421,3.16184211 C18.5763158,3.195 18.8605263,3.44605263 18.9315789,3.78236842 L23.0605263,23.0589474 L26.8815789,11.5926316 C26.9921053,11.2736842 27.2842105,11.0573684 27.6236842,11.0526316 C27.9631579,11.0526316 28.2552632,11.2563158 28.3736842,11.5721053 L30.7578947,18.1271053 L32.4078947,13.1715789 C32.5184211,12.8486842 32.8184211,12.6315789 33.1578947,12.6315789 L46.5789474,12.6315789 C47.0131579,12.6315789 47.3684211,12.9852632 47.3684211,13.4210526 C47.3684211,13.8568421 47.0131579,14.2105263 46.5789474,14.2105263 L33.7263158,14.2105263 L31.5394737,20.7757895 C31.4289474,21.0947368 31.1368421,21.3110526 30.7973684,21.3157895 L30.7894737,21.3157895 C30.4578947,21.3157895 30.1578947,21.1081579 30.0473684,20.7963158 L27.6631579,14.2413158 L23.6447368,26.3021053 C23.5342105,26.6257895 23.2342105,26.8421053 22.8947368,26.8421053" id="Fill-253"></path>
            </g>
        </g>
    </g>
</svg>