<?xml version="1.0" encoding="UTF-8" standalone="no"?>
<svg width="37px" height="41px" viewBox="0 0 37 41" version="1.1" xmlns="http://www.w3.org/2000/svg" xmlns:xlink="http://www.w3.org/1999/xlink">
    <!-- Generator: Sketch 39.1 (31720) - http://www.bohemiancoding.com/sketch -->
    <title>Fill 6</title>
    <desc>Created with Sketch.</desc>
    <defs></defs>
    <g id="Page-1" stroke="none" stroke-width="1" fill="none" fill-rule="evenodd">
        <g id="About" transform="translate(-81.000000, -1150.000000)" fill="#1A1B19">
            <g id="Fill-6" transform="translate(81.000000, 1150.000000)">
                <path d="M8.71117682,5.54518763 C8.71117682,3.36196805 10.487465,1.58433932 12.6708026,1.58433932 C14.8541403,1.58433932 16.6304285,3.36196805 16.6304285,5.54518763 C16.6304285,7.72919939 14.8541403,9.50603594 12.6708026,9.50603594 C10.487465,9.50603594 8.71117682,7.72919939 8.71117682,5.54518763 L8.71117682,5.54518763 Z M35.4727039,29.938468 L31.281044,34.1322142 L21.7098365,24.5572595 L13.4627278,24.5572595 L13.4627278,17.4277326 L22.1739046,17.4277326 L22.1739046,15.8433932 L13.4627278,15.8433932 L13.4627278,11.0270017 C16.1441864,10.6404229 18.2142788,8.33362484 18.2142788,5.54518763 C18.2142788,2.48741274 15.7276338,0 12.6708026,0 C9.61397151,0 7.12732649,2.48741274 7.12732649,5.54518763 C7.12732649,8.33362484 9.19662694,10.6412151 11.8788775,11.0270017 L11.8788775,26.1415988 L21.0541224,26.1415988 L31.281044,36.3716779 L36.5924861,31.0593881 L35.4727039,29.938468 L35.4727039,29.938468 Z M15.4425407,38.8163134 C7.80046288,38.8163134 1.58385033,32.5969894 1.58385033,24.9533444 C1.58385033,20.0355551 4.10454813,15.5875224 8.32630119,13.054956 L7.51220212,11.6955929 C2.87864798,14.4745241 0,19.5547081 0,24.9533444 C0,33.4707526 6.92696942,40.4006528 15.4425407,40.4006528 C19.7585329,40.4006528 23.9082207,38.5747017 26.826465,35.391764 L25.6583754,34.3207506 C23.0394788,37.1773144 19.3158467,38.8163134 15.4425407,38.8163134 L15.4425407,38.8163134 Z"></path>
            </g>
        </g>
    </g>
</svg>