<?xml version="1.0" encoding="UTF-8" standalone="no"?>
<svg width="56px" height="70px" viewBox="0 0 28 35" version="1.1" xmlns="http://www.w3.org/2000/svg" xmlns:xlink="http://www.w3.org/1999/xlink">
    <!-- Generator: Sketch 39.1 (31720) - http://www.bohemiancoding.com/sketch -->
    <title>flame</title>
    <desc>Created with Sketch.</desc>
    <defs>
        <filter x="-50%" y="-50%" width="200%" height="200%" filterUnits="objectBoundingBox" id="filter-1">
            <feOffset dx="0" dy="1" in="SourceAlpha" result="shadowOffsetOuter1"></feOffset>
            <feColorMatrix values="0 0 0 0 0   0 0 0 0 0   0 0 0 0 0  0 0 0 0.5 0" type="matrix" in="shadowOffsetOuter1" result="shadowMatrixOuter1"></feColorMatrix>
            <feMerge>
                <feMergeNode in="shadowMatrixOuter1"></feMergeNode>
                <feMergeNode in="SourceGraphic"></feMergeNode>
            </feMerge>
        </filter>
    </defs>
    <g id="Symbols" stroke="none" stroke-width="1" fill="none" fill-rule="evenodd">
        <g id="_Header" transform="translate(-400.000000, -28.000000)" fill="#FFFFFF">
            <g id="Menu">
                <g id="Title" filter="url(#filter-1)" transform="translate(400.000000, 25.000000)">
                    <g id="flame" transform="translate(0.000000, 3.000000)">
                        <path d="M27.4855197,19.9037447 C26.7346261,16.1485532 26.546541,12.4555745 16.6576048,8.13685106 C14.5915623,6.75948936 11.0244559,4.44387234 15.9059878,0 C13.528158,0.313234043 2.74654098,2.48634043 9.33964736,10.5971489 C11.4353495,12.9084255 20.0995623,16.7742979 20.6008814,21.4684681 C21.038541,22.8458298 22.3775623,27.332383 18.3713495,32.1517021 C18.2483708,32.3238723 18.0074772,32.6942553 17.7217325,33.048 C17.7217325,33.048 27.7358176,30.1059149 27.4855197,19.9037447" id="Fill-49"></path>
                        <path d="M12.0794919,16.3677447 C11.3199174,15.912 5.92693868,12.4179574 5.69906634,9.83540426 C5.65276846,9.316 5.267194,8.05221277 6.08102378,6.5106383 C5.37425783,7.02425532 1.04830038,9.2306383 1.4765557,14.1128936 C1.5626408,15.0120851 2.20502378,19.3170638 8.37276846,21.4156596 C9.01515144,21.7151489 13.6188961,23.8571489 13.4264706,27.4973191 C13.2767259,28.5679574 12.6770238,31.1165106 10.3852791,33.6650638 C10.3360876,33.7294468 10.3013642,33.8234894 10.3013642,33.8234894 C12.5764706,33.8914894 16.6868536,33.8914894 18.3166834,25.5014468 C18.2682153,23.6596596 18.38396,21.0771064 12.0794919,16.3677447" id="Fill-51"></path>
                        <path d="M10.7870661,26.9706809 C10.7906831,26.2472766 9.51387463,24.6789362 7.28868314,24.2231915 C7.28868314,24.2231915 0.979874631,21.2449362 0.922725695,16.6382979 C0.183406546,18.1740851 -2.3239126,25.8371064 6.15004484,31.5809362 C6.36489591,31.7422553 7.11434272,32.133617 7.31761931,32.2327234 C7.55634272,32.3491915 7.93757676,32.5575319 8.20089591,32.4996596 C8.7441725,32.3810213 10.8883427,31.6380851 10.7870661,26.9706809" id="Fill-53"></path>
                    </g>
                </g>
            </g>
        </g>
    </g>
</svg>