<?xml version="1.0" encoding="UTF-8" standalone="no"?>
<svg width="45px" height="43px" viewBox="0 0 45 43" version="1.1" xmlns="http://www.w3.org/2000/svg" xmlns:xlink="http://www.w3.org/1999/xlink">
    <!-- Generator: Sketch 39.1 (31720) - http://www.bohemiancoding.com/sketch -->
    <title>Fill 30</title>
    <desc>Created with Sketch.</desc>
    <defs></defs>
    <g id="Page-1" stroke="none" stroke-width="1" fill="none" fill-rule="evenodd">
        <g id="About" transform="translate(-76.000000, -1369.000000)" fill="#0A0B09">
            <path d="M97.6011501,1389.82921 C97.7408739,1390.22611 98.1815414,1390.438 98.5807523,1390.29751 C98.9830341,1390.16009 99.194923,1389.72633 99.0551991,1389.32789 C97.7078622,1385.48932 96.0672588,1380.7748 94.7245282,1376.90552 C97.237254,1381.20855 100.417123,1386.66392 102.602802,1390.45643 C102.744829,1390.70363 103.004317,1390.84105 103.271481,1390.84105 C103.401224,1390.84105 103.532503,1390.80881 103.653034,1390.74048 C104.022304,1390.5332 104.15128,1390.06643 103.940159,1389.70177 C99.8221448,1382.55359 92.1803262,1369.51167 92.1035549,1369.37963 C91.9039494,1369.04106 91.4817071,1368.90672 91.1170433,1369.06793 C90.7569857,1369.23146 90.5804116,1369.63758 90.7078521,1370.00915 C90.7485409,1370.12661 94.8043704,1381.86955 97.6011501,1389.82921 L97.6011501,1389.82921 Z M101.870404,1398.2587 C101.067376,1397.89557 91.2974559,1392.32427 83.6026651,1387.9199 C92.0083584,1390.78117 102.66422,1394.42551 103.467248,1394.78863 C104.433031,1395.22393 104.860647,1396.35784 104.420748,1397.31364 C103.993899,1398.24027 102.81853,1398.68785 101.870404,1398.2587 L101.870404,1398.2587 Z M105.822592,1397.94701 C106.614105,1396.22503 105.844856,1394.18521 104.105985,1393.39984 C102.732546,1392.78106 77.7012527,1384.30321 76.6364344,1383.94315 L76,1385.3235 C76.9742282,1385.88239 99.858995,1399.02488 101.231666,1399.64596 C101.68692,1399.85247 102.169812,1399.95611 102.66729,1399.95611 C104.021537,1399.95611 105.260626,1399.16767 105.822592,1397.94701 L105.822592,1397.94701 Z M110.881823,1409.69072 C110.362849,1410.20432 109.645805,1410.47455 108.805926,1410.47455 C107.558392,1410.47455 106.250209,1409.88879 105.216866,1408.86619 C104.324783,1407.98256 103.758979,1406.8924 103.622326,1405.79764 C103.494885,1404.77275 103.76512,1403.87068 104.384665,1403.25651 C104.902872,1402.74445 105.620684,1402.47345 106.459794,1402.47345 C107.707328,1402.47345 109.014744,1403.05998 110.048086,1404.08257 C110.940169,1404.96621 111.505974,1406.05483 111.642627,1407.15112 C111.770835,1408.17525 111.5006,1409.07732 110.881823,1409.69072 L110.881823,1409.69072 Z M111.137472,1403.0047 C109.817005,1401.69805 108.112681,1400.94723 106.459794,1400.94723 C105.220705,1400.94723 104.09754,1401.3856 103.29528,1402.17941 C102.333335,1403.13061 101.907254,1404.48332 102.093041,1405.9842 C102.271918,1407.41522 102.994336,1408.82167 104.128249,1409.9433 C105.447948,1411.24994 107.153039,1412 108.805926,1412 C110.044248,1412 111.168948,1411.5624 111.970441,1410.76936 C112.931618,1409.81739 113.359234,1408.46545 113.171912,1406.9638 C112.993802,1405.53278 112.270616,1404.12633 111.137472,1403.0047 L111.137472,1403.0047 Z M117.813507,1400.53881 C117.2953,1401.05241 116.577488,1401.32341 115.738378,1401.32341 C114.490076,1401.32341 113.18266,1400.73765 112.14855,1399.71352 C111.256467,1398.83065 110.690662,1397.74126 110.554009,1396.64573 C110.426569,1395.6216 110.697572,1394.71877 111.316349,1394.10614 C111.834555,1393.59254 112.5516,1393.3223 113.391478,1393.3223 C114.63978,1393.3223 115.946428,1393.9096 116.97977,1394.93066 C117.871853,1395.81584 118.438425,1396.90445 118.575078,1397.99921 C118.702519,1399.02334 118.432284,1399.92617 117.813507,1400.53881 L117.813507,1400.53881 Z M120.103596,1397.81343 C119.925486,1396.38164 119.2023,1394.97519 118.069155,1393.85356 C116.749456,1392.54614 115.044365,1391.79686 113.391478,1391.79686 C112.152389,1391.79686 111.028456,1392.23445 110.226964,1393.02827 C109.265019,1393.97946 108.83817,1395.33064 109.025492,1396.83306 C109.203602,1398.26331 109.92602,1399.66899 111.059165,1400.79215 C112.379632,1402.09957 114.084723,1402.84886 115.738378,1402.84886 C116.975931,1402.84886 118.100632,1402.41049 118.902124,1401.61744 C119.863301,1400.66548 120.290918,1399.3143 120.103596,1397.81343 L120.103596,1397.81343 Z" id="Fill-30" transform="translate(98.073342, 1390.500000) scale(-1, 1) translate(-98.073342, -1390.500000) "></path>
        </g>
    </g>
</svg>