<?xml version="1.0" encoding="UTF-8" standalone="no"?>
<svg width="42px" height="45px" viewBox="0 0 42 45" version="1.1" xmlns="http://www.w3.org/2000/svg" xmlns:xlink="http://www.w3.org/1999/xlink">
    <!-- Generator: Sketch 39.1 (31720) - http://www.bohemiancoding.com/sketch -->
    <title>Group</title>
    <desc>Created with Sketch.</desc>
    <defs></defs>
    <g id="Page-1" stroke="none" stroke-width="1" fill="none" fill-rule="evenodd">
        <g id="About" transform="translate(-516.000000, -1365.000000)">
            <g id="Group" transform="translate(516.000000, 1365.000000)">
                <path d="M9.52531034,26.8809555 C10.1422759,27.3230164 12.5732069,28.4964871 21,28.4964871 C29.4267931,28.4964871 31.8577241,27.3230164 32.4746897,26.8809555 C31.5868966,24.4974801 31.137931,21.9992881 31.137931,19.4470258 L31.137931,12.4215457 C31.137931,2.68232319 22.842931,2.18911475 21.1795862,2.18911475 L21.0296897,2.19130679 L20.8493793,2.18984543 C19.1816897,2.18984543 10.862069,2.68305386 10.862069,12.4215457 L10.862069,19.4470258 C10.862069,21.9992881 10.4131034,24.4974801 9.52531034,26.8809555 L9.52531034,26.8809555 Z M21,29.9578454 C9.69693103,29.9578454 8.19,27.884178 7.99737931,27.2484871 L7.92206897,27.0029789 L8.01693103,26.7640468 C8.94455172,24.4266042 9.4137931,21.9649461 9.4137931,19.4470258 L9.4137931,12.4215457 C9.4137931,1.05656206 19.6791724,0.728487119 20.8493793,0.728487119 L21.0079655,0.730679157 C21.0014483,0.729948478 21.0709655,0.72775644 21.1795862,0.72775644 C22.3468966,0.72775644 32.5862069,1.05583138 32.5862069,12.4215457 L32.5862069,19.4470258 C32.5862069,21.9649461 33.0554483,24.4266042 33.983069,26.7640468 L34.077931,27.0029789 L34.0026207,27.2484871 C33.81,27.884178 32.303069,29.9578454 21,29.9578454 L21,29.9578454 Z" id="Fill-169" fill="#0A0B09"></path>
                <path d="M1.50186207,43.1100703 L40.4981379,43.1100703 C39.942,39.3434192 35.243069,37.225911 35.1931034,37.20326 L33.1104828,36.269452 C30.2327586,34.9790726 27.8481724,32.7475785 26.3542759,29.9578454 L15.6457241,29.9578454 C14.1518276,32.7475785 11.7672414,34.9790726 8.88951724,36.269452 L6.81124138,37.2017986 C6.75765517,37.2251803 2.06017241,39.3551101 1.50186207,43.1100703 L1.50186207,43.1100703 Z M42,44.5714286 L0,44.5714286 L0,43.8407494 C0,38.6726557 5.97268966,35.9771803 6.22758621,35.8646557 L8.30151724,34.9345012 C11.0105172,33.7193817 13.2328966,31.5762998 14.5587931,28.9005527 L14.7593793,28.4964871 L27.2406207,28.4964871 L27.4412069,28.9005527 C28.7671034,31.5762998 30.9894828,33.7193817 33.6984828,34.9345012 L35.7767586,35.8661171 C36.0273103,35.9771803 42,38.6726557 42,43.8407494 L42,44.5714286 L42,44.5714286 Z" id="Fill-170" fill="#0A0B09"></path>
                <path d="M11.1213103,16.1151288 C10.773,16.1151288 10.4254138,16.1012459 10.0778276,16.0727494 L10.1980345,14.6157752 C17.4596897,15.2244309 25.515,8.28517096 25.5961034,8.21502576 C25.8061034,8.03162529 26.1022759,7.98632319 26.3571724,8.0981171 C26.6127931,8.20991101 26.7815172,8.4590726 26.7923793,8.7396534 C26.9922414,13.9019016 31.7541724,14.5931241 31.956931,14.6201593 L31.7672069,16.0683653 C31.7107241,16.0610585 26.4918621,15.306267 25.4997931,10.1652084 C23.1296897,11.992637 17.1171724,16.1151288 11.1213103,16.1151288" id="Fill-171" fill="#1B1A19"></path>
                <polygon id="Fill-172" fill="#0A0B09" points="26.0689655 34.3419204 27.5172414 34.3419204 27.5172414 41.6487119 26.0689655 41.6487119"></polygon>
                <polygon id="Fill-173" fill="#0A0B09" points="23.1724138 37.264637 30.4137931 37.264637 30.4137931 38.7259953 23.1724138 38.7259953"></polygon>
            </g>
        </g>
    </g>
</svg>