<?xml version="1.0" encoding="UTF-8" standalone="no"?>
<svg width="40px" height="49px" viewBox="0 0 40 49" version="1.1" xmlns="http://www.w3.org/2000/svg" xmlns:xlink="http://www.w3.org/1999/xlink">
    <!-- Generator: Sketch 39.1 (31720) - http://www.bohemiancoding.com/sketch -->
    <title>Group</title>
    <desc>Created with Sketch.</desc>
    <defs></defs>
    <g id="Page-1" stroke="none" stroke-width="1" fill="none" fill-rule="evenodd">
        <g id="About" transform="translate(-518.000000, -1146.000000)" fill="#0A0B09">
            <g id="Group" transform="translate(518.000000, 1146.000000)">
                <path d="M13.0232558,33.4883721 C10.9674419,33.4883721 9.30232558,35.1534884 9.30232558,37.2093023 C9.30232558,39.2651163 10.9674419,40.9302326 13.0232558,40.9302326 C15.0790698,40.9302326 16.744186,39.2651163 16.744186,37.2093023 C16.744186,35.1534884 15.0790698,33.4883721 13.0232558,33.4883721 L13.0232558,33.4883721 Z M13.0232558,42.7906977 C9.94418605,42.7906977 7.44186047,40.2883721 7.44186047,37.2093023 C7.44186047,34.1302326 9.94418605,31.627907 13.0232558,31.627907 C16.1023256,31.627907 18.6046512,34.1302326 18.6046512,37.2093023 C18.6046512,40.2883721 16.1023256,42.7906977 13.0232558,42.7906977 L13.0232558,42.7906977 Z" id="Fill-424"></path>
                <path d="M27.8697674,1.86046512 C27.8697674,1.86046512 23.7953488,1.89767442 19.7953488,3.24651163 C14.6883721,4.97674419 12.0930233,7.95348837 12.0930233,12.0930233 L12.0930233,15.4511628 C12.0930233,20.1023256 10.4372093,24.6232558 7.43255814,28.1767442 L4.94883721,31.1162791 C2.00930233,34.5860465 1.50697674,39.4046512 3.70232558,43.0976744 L3.79534884,43.2465116 C5.07906977,45.3302326 7.44186047,46.6139535 9.9627907,46.6139535 L10.1860465,46.6139535 C14.9023256,46.4744186 26.7255814,44.5860465 34.6418605,30.1581395 C37.8046512,24.4093023 38.8465116,17.972093 37.5813953,12.027907 C36.1860465,5.48837209 32.9209302,2.06511628 27.8697674,1.86046512 L27.8697674,1.86046512 Z M9.9627907,48.4744186 C6.8,48.4744186 3.83255814,46.8465116 2.21395349,44.2325581 L2.10232558,44.0465116 C-0.493023256,39.6651163 0.0744186047,33.9906977 3.5255814,29.9069767 L6.00930233,26.9767442 C8.73488372,23.7581395 10.2325581,19.6651163 10.2325581,15.4511628 L10.2325581,12.0930233 C10.2325581,2.59534884 21.7860465,0.0279069767 27.9069767,0 C33.8697674,0.241860465 37.8325581,4.26976744 39.3953488,11.6372093 C40.7534884,18.0186047 39.6465116,24.9116279 36.2790698,31.0604651 C27.8976744,46.3255814 15.2744186,48.3255814 10.2418605,48.4744186 L9.9627907,48.4744186 L9.9627907,48.4744186 Z" id="Fill-425"></path>
                <path d="M25.1162791,7.44186047 C21.0139535,7.44186047 17.6744186,10.7813953 17.6744186,14.8837209 C17.6744186,18.9860465 21.0139535,22.3255814 25.1162791,22.3255814 C29.2186047,22.3255814 32.5581395,18.9860465 32.5581395,14.8837209 C32.5581395,10.7813953 29.2186047,7.44186047 25.1162791,7.44186047 L25.1162791,7.44186047 Z M25.1162791,24.1860465 C19.9906977,24.1860465 15.8139535,20.0093023 15.8139535,14.8837209 C15.8139535,9.75813953 19.9906977,5.58139535 25.1162791,5.58139535 C30.2418605,5.58139535 34.4186047,9.75813953 34.4186047,14.8837209 C34.4186047,20.0093023 30.2418605,24.1860465 25.1162791,24.1860465 L25.1162791,24.1860465 Z" id="Fill-426"></path>
                <path d="M21.3953488,13.0232558 C21.3953488,13.5348837 20.9767442,13.9534884 20.4651163,13.9534884 C19.9534884,13.9534884 19.5348837,13.5348837 19.5348837,13.0232558 C19.5348837,12.5116279 19.9534884,12.0930233 20.4651163,12.0930233 C20.9767442,12.0930233 21.3953488,12.5116279 21.3953488,13.0232558" id="Fill-427"></path>
                <path d="M25.1162791,11.1627907 C25.1162791,11.6744186 24.6976744,12.0930233 24.1860465,12.0930233 C23.6744186,12.0930233 23.255814,11.6744186 23.255814,11.1627907 C23.255814,10.6511628 23.6744186,10.2325581 24.1860465,10.2325581 C24.6976744,10.2325581 25.1162791,10.6511628 25.1162791,11.1627907" id="Fill-428"></path>
                <path d="M22.3255814,32.5581395 C22.3255814,33.0697674 21.9069767,33.4883721 21.3953488,33.4883721 C20.8837209,33.4883721 20.4651163,33.0697674 20.4651163,32.5581395 C20.4651163,32.0465116 20.8837209,31.627907 21.3953488,31.627907 C21.9069767,31.627907 22.3255814,32.0465116 22.3255814,32.5581395" id="Fill-429"></path>
                <path d="M14.8837209,26.0465116 C14.8837209,26.5581395 14.4651163,26.9767442 13.9534884,26.9767442 C13.4418605,26.9767442 13.0232558,26.5581395 13.0232558,26.0465116 C13.0232558,25.5348837 13.4418605,25.1162791 13.9534884,25.1162791 C14.4651163,25.1162791 14.8837209,25.5348837 14.8837209,26.0465116" id="Fill-430"></path>
                <path d="M22.3255814,37.2093023 C22.3255814,37.7209302 21.9069767,38.1395349 21.3953488,38.1395349 C20.8837209,38.1395349 20.4651163,37.7209302 20.4651163,37.2093023 C20.4651163,36.6976744 20.8837209,36.2790698 21.3953488,36.2790698 C21.9069767,36.2790698 22.3255814,36.6976744 22.3255814,37.2093023" id="Fill-431"></path>
                <path d="M34.4186047,25.1162791 C34.4186047,25.627907 34,26.0465116 33.4883721,26.0465116 C32.9767442,26.0465116 32.5581395,25.627907 32.5581395,25.1162791 C32.5581395,24.6046512 32.9767442,24.1860465 33.4883721,24.1860465 C34,24.1860465 34.4186047,24.6046512 34.4186047,25.1162791" id="Fill-432"></path>
                <path d="M21.3953488,26.0465116 C21.3953488,26.5581395 20.9767442,26.9767442 20.4651163,26.9767442 C19.9534884,26.9767442 19.5348837,26.5581395 19.5348837,26.0465116 C19.5348837,25.5348837 19.9534884,25.1162791 20.4651163,25.1162791 C20.9767442,25.1162791 21.3953488,25.5348837 21.3953488,26.0465116" id="Fill-433"></path>
                <path d="M28.8372093,29.7674419 C28.8372093,30.2790698 28.4186047,30.6976744 27.9069767,30.6976744 C27.3953488,30.6976744 26.9767442,30.2790698 26.9767442,29.7674419 C26.9767442,29.255814 27.3953488,28.8372093 27.9069767,28.8372093 C28.4186047,28.8372093 28.8372093,29.255814 28.8372093,29.7674419" id="Fill-434"></path>
                <path d="M25.1162791,14.8837209 C25.1162791,15.3953488 24.6976744,15.8139535 24.1860465,15.8139535 C23.6744186,15.8139535 23.255814,15.3953488 23.255814,14.8837209 C23.255814,14.372093 23.6744186,13.9534884 24.1860465,13.9534884 C24.6976744,13.9534884 25.1162791,14.372093 25.1162791,14.8837209" id="Fill-435"></path>
                <path d="M21.3953488,17.6744186 C21.3953488,18.1860465 20.9767442,18.6046512 20.4651163,18.6046512 C19.9534884,18.6046512 19.5348837,18.1860465 19.5348837,17.6744186 C19.5348837,17.1627907 19.9534884,16.744186 20.4651163,16.744186 C20.9767442,16.744186 21.3953488,17.1627907 21.3953488,17.6744186" id="Fill-436"></path>
                <path d="M26.0465116,18.6046512 C26.0465116,19.1162791 25.627907,19.5348837 25.1162791,19.5348837 C24.6046512,19.5348837 24.1860465,19.1162791 24.1860465,18.6046512 C24.1860465,18.0930233 24.6046512,17.6744186 25.1162791,17.6744186 C25.627907,17.6744186 26.0465116,18.0930233 26.0465116,18.6046512" id="Fill-437"></path>
                <path d="M29.7674419,15.8139535 C29.7674419,16.3255814 29.3488372,16.744186 28.8372093,16.744186 C28.3255814,16.744186 27.9069767,16.3255814 27.9069767,15.8139535 C27.9069767,15.3023256 28.3255814,14.8837209 28.8372093,14.8837209 C29.3488372,14.8837209 29.7674419,15.3023256 29.7674419,15.8139535" id="Fill-438"></path>
                <path d="M28.8372093,12.0930233 C28.8372093,12.6046512 28.4186047,13.0232558 27.9069767,13.0232558 C27.3953488,13.0232558 26.9767442,12.6046512 26.9767442,12.0930233 C26.9767442,11.5813953 27.3953488,11.1627907 27.9069767,11.1627907 C28.4186047,11.1627907 28.8372093,11.5813953 28.8372093,12.0930233" id="Fill-439"></path>
            </g>
        </g>
    </g>
</svg>